<svg width="24" height="24" viewBox="0 0 24 24" fill="none" xmlns="http://www.w3.org/2000/svg">
<path d="M16.6551 0L16.0481 0.664485C14.6889 2.15888 13.5684 2.82706 12.6357 3.2642C11.703 3.70041 10.9193 3.83072 10.1494 4.41942C9.32871 5.04787 8.13602 6.25299 7.63359 8.40448C6.55656 8.63922 5.76822 9.05141 5.14643 9.58836C4.53204 10.1188 4.0694 10.7223 3.49942 11.3794C3.4948 11.3868 3.5022 11.4007 3.49942 11.4081C2.68147 12.347 1.96623 13.3581 0.578302 13.8923L0 14.1233V24H17.6387C18.65 23.9455 19.3514 23.2459 19.7779 22.5555C20.2036 21.8661 20.4395 21.1193 20.5589 20.5057C20.8661 18.942 21.4259 14.4403 21.4259 14.4403L21.4555 14.3543V14.2675C21.4259 13.6427 21.1686 13.1122 20.8476 12.6206L21.8885 9.53106L23.5374 7.04686L24 6.38238L23.3921 5.83434L17.3204 0.577612L16.6551 0ZM16.7134 2.54149L21.5415 6.72987L20.2693 8.60595L20.1832 8.69375L20.1536 8.83792L19.3153 11.3212C18.8776 11.141 18.427 11.0144 17.9274 11.0328H17.8691L12.0287 11.0615H11.1034V14.6427C10.9739 15.65 10.4131 16.04 9.71548 16.3182C9.48415 16.4116 9.45547 16.3607 9.25283 16.4042V11.0338C9.10109 7.60784 10.3225 6.62174 11.2774 5.89256C11.5411 5.69017 12.3137 5.45635 13.4166 4.93974C14.3382 4.5063 15.4837 3.72906 16.7134 2.54149ZM7.46056 10.4839C7.45686 10.6937 7.39116 10.8415 7.40227 11.0615V18.4549H8.32755C8.32755 18.4549 9.3176 18.4438 10.3808 18.0215C11.4439 17.5991 12.7263 16.6103 12.954 14.8737V12.9099L17.9274 12.8812H17.956C18.3624 12.8585 18.7611 12.9978 19.0647 13.2684C19.3683 13.5391 19.5519 13.919 19.5753 14.3248C19.5716 14.3396 19.529 14.6824 19.5179 14.7582H15.7298V16.6066H19.2866C19.1885 17.321 19.0988 17.7692 18.997 18.4549H15.7298V20.3033H18.7083C18.599 20.7504 18.4234 21.1787 18.1874 21.574C17.9348 21.9853 17.7173 22.1406 17.523 22.1516H1.85057V15.249C3.35045 14.4542 4.28314 13.3109 4.88642 12.6215C5.51191 11.9062 5.94124 11.3646 6.36132 11.0042C6.63613 10.7695 7.06639 10.6355 7.46056 10.4839Z" fill="white"/>
</svg>
