<svg width="26" height="26" viewBox="0 0 26 26" fill="none" xmlns="http://www.w3.org/2000/svg">
<path d="M13 25.0001C18.2337 25.0001 22.4765 20.2588 22.4765 14.4101C22.4765 8.56139 18.2337 3.82007 13 3.82007C7.76623 3.82007 3.52344 8.56139 3.52344 14.4101C3.52344 20.2588 7.76623 25.0001 13 25.0001Z" stroke="white" stroke-width="2"/>
<path d="M4.82987 1.00024C3.91147 1.27512 3.07401 1.81536 2.40171 2.56666C1.72941 3.31795 1.24597 4.25381 1 5.28013M21.1701 1.00024C22.0885 1.27512 22.926 1.81536 23.5983 2.56666C24.2706 3.31795 24.754 4.25381 25 5.28013M13 8.3588V14.032C13 14.2408 13.1516 14.4102 13.3384 14.4102H17.0614" stroke="white" stroke-width="2" stroke-linecap="round"/>
</svg>
