<svg width="24" height="24" viewBox="0 0 24 24" fill="none" xmlns="http://www.w3.org/2000/svg">
<path d="M10.3817 0.669368C10.7869 0.264764 11.3289 0.0266879 11.9009 0.00211129C12.473 -0.0224654 13.0334 0.168242 13.4718 0.536608L13.6183 0.670512L15.7927 2.84388H18.8667C19.444 2.84399 19.9999 3.06222 20.4231 3.45485C20.8463 3.84748 21.1055 4.38552 21.1488 4.96117L21.1557 5.13285V8.20693L23.3301 10.3814C23.735 10.7866 23.9733 11.3289 23.9979 11.9012C24.0225 12.4735 23.8316 13.0343 23.4629 13.4727L23.329 13.618L21.1545 15.7926V18.8666C21.1547 19.4441 20.9366 20.0003 20.5439 20.4238C20.1513 20.8472 19.6131 21.1066 19.0373 21.1499L18.8667 21.1556H15.7939L13.6194 23.3301C13.2142 23.735 12.6719 23.9733 12.0996 23.9979C11.5273 24.0225 10.9666 23.8316 10.5282 23.4629L10.3829 23.3301L8.20841 21.1556H5.13326C4.55579 21.1558 3.9996 20.9377 3.57617 20.545C3.15274 20.1524 2.89338 19.6142 2.85007 19.0383L2.84434 18.8666V15.7926L0.669876 13.618C0.26496 13.2128 0.0266882 12.6706 0.00210969 12.0982C-0.0224688 11.5259 0.168433 10.9652 0.537119 10.5268L0.669876 10.3814L2.84434 8.20693V5.13285C2.84445 4.55557 3.06267 3.99964 3.4553 3.57645C3.84792 3.15326 4.38595 2.89405 4.96159 2.85075L5.13326 2.84388H8.20727L10.3817 0.669368ZM12 2.28995L9.82553 4.46447C9.44538 4.84404 8.94383 5.0778 8.40869 5.12484L8.20727 5.13285H5.13326V8.20693C5.1334 8.74471 4.94418 9.26537 4.5988 9.67758L4.46261 9.82637L2.28814 12.0009L4.46261 14.1743C4.84259 14.5542 5.07676 15.0558 5.1241 15.5911L5.13326 15.7926V18.8666H8.20727C8.74504 18.8665 9.26569 19.0557 9.6779 19.4011L9.82668 19.5373L12 21.7118L14.1745 19.5373C14.5545 19.1573 15.056 18.9231 15.5913 18.8758L15.7927 18.8666H18.8667V15.7926C18.8666 15.2548 19.0558 14.7341 19.4012 14.3219L19.5374 14.1731L21.7119 11.9997L19.5374 9.82522C19.1574 9.44523 18.9232 8.94365 18.8759 8.40835L18.8667 8.20693V5.13285H15.7927C15.255 5.13298 14.7343 4.94376 14.3221 4.59837L14.1733 4.46218L11.9989 2.28767L12 2.28995ZM15.5249 8.54798C15.7309 8.34272 16.0072 8.22355 16.2979 8.21468C16.5885 8.2058 16.8716 8.30789 17.0897 8.5002C17.3078 8.69251 17.4445 8.96063 17.4721 9.25009C17.4997 9.53956 17.416 9.82867 17.2382 10.0587L17.142 10.1663L11.5571 15.7513C11.339 15.9697 11.0484 16.1003 10.7404 16.1185C10.4323 16.1366 10.1284 16.041 9.88619 15.8498L9.77632 15.7525L7.02505 13.0012C6.81761 12.7957 6.69655 12.5187 6.68665 12.2269C6.67675 11.935 6.77876 11.6505 6.97179 11.4314C7.16482 11.2123 7.43429 11.0753 7.72502 11.0484C8.01576 11.0215 8.30578 11.1068 8.53573 11.2867L8.64331 11.3817L10.6667 13.4052L15.5249 8.54798Z" fill="white"/>
</svg>
