<svg width="84" height="84" viewBox="0 0 84 84" fill="none" xmlns="http://www.w3.org/2000/svg">
<path d="M41.6667 0C43.2306 0 44.7722 0.0847227 46.2917 0.254167C46.8356 0.314356 47.3623 0.481083 47.8417 0.744829C48.3212 1.00857 48.744 1.36417 49.086 1.79132C49.4281 2.21847 49.6826 2.70881 49.8351 3.23433C49.9877 3.75985 50.0352 4.31027 49.975 4.85417C49.9148 5.39806 49.7481 5.92477 49.4843 6.40422C49.2206 6.88368 48.865 7.3065 48.4378 7.64852C48.0107 7.99055 47.5204 8.2451 46.9948 8.39763C46.4693 8.55016 45.9189 8.59769 45.375 8.5375C38.5085 7.76935 31.573 9.15392 25.5278 12.4997C19.4826 15.8454 14.6265 20.9871 11.6311 27.2133C8.63574 33.4396 7.64918 40.4428 8.80788 47.2543C9.96659 54.0657 13.2133 60.3488 18.0989 65.2344C22.9845 70.12 29.2676 73.3667 36.0791 74.5254C42.8905 75.6842 49.8937 74.6976 56.12 71.7022C62.3463 68.7069 67.4879 63.8507 70.8336 57.8055C74.1794 51.7603 75.564 44.8248 74.7958 37.9583C74.7356 37.4144 74.7832 36.864 74.9357 36.3385C75.0882 35.813 75.3428 35.3226 75.6848 34.8955C76.3756 34.0328 77.3807 33.4799 78.4792 33.3583C79.5776 33.2368 80.6793 33.5565 81.542 34.2473C81.9692 34.5893 82.3248 35.0122 82.5885 35.4916C82.8522 35.9711 83.019 36.4978 83.0792 37.0417C83.2458 38.5611 83.3306 40.1028 83.3333 41.6667C83.3333 64.6792 64.6792 83.3333 41.6667 83.3333C18.6542 83.3333 0 64.6792 0 41.6667C0 18.6542 18.6542 0 41.6667 0ZM41.5333 24.4875C41.8079 25.5572 41.6466 26.6921 41.0849 27.6429C40.5232 28.5938 39.6069 29.2827 38.5375 29.5583C35.5995 30.328 33.0418 32.1403 31.3418 34.6571C29.6418 37.1739 28.9156 40.2233 29.2988 43.2362C29.6819 46.2491 31.1481 49.0197 33.4239 51.031C35.6997 53.0423 38.6295 54.1568 41.6667 54.1667C44.4388 54.1678 47.1326 53.2475 49.3245 51.5504C51.5164 49.8533 53.082 47.4757 53.775 44.7917C54.0703 43.7431 54.7646 42.852 55.709 42.3091C56.6533 41.7661 57.7728 41.6147 58.8275 41.8871C59.8822 42.1595 60.7883 42.8341 61.3517 43.7664C61.9151 44.6987 62.091 45.8146 61.8417 46.875C60.5635 51.7747 57.5452 56.0415 53.3506 58.8782C49.1561 61.715 44.0723 62.9276 39.049 62.2896C34.0257 61.6516 29.4064 59.2066 26.0542 55.4114C22.702 51.6162 20.8461 46.7303 20.8333 41.6667C20.8326 37.0475 22.3671 32.559 25.1955 28.907C28.0239 25.2549 31.9858 22.6465 36.4583 21.4917C36.9883 21.3551 37.5399 21.3242 38.0818 21.4009C38.6237 21.4775 39.1451 21.6601 39.6164 21.9383C40.0877 22.2165 40.4995 22.5848 40.8284 23.0222C41.1573 23.4596 41.3969 23.9575 41.5333 24.4875ZM68.7667 0.529167C69.5272 0.844496 70.1773 1.37807 70.6348 2.06254C71.0924 2.74701 71.3369 3.55169 71.3375 4.375V12H78.9583C79.7823 12.0002 80.5877 12.2446 81.2727 12.7025C81.9578 13.1603 82.4917 13.811 82.807 14.5723C83.1223 15.3335 83.2048 16.1712 83.0441 16.9793C82.8834 17.7874 82.4867 18.5298 81.9042 19.1125L67.1667 33.8333C66.3854 34.6148 65.3258 35.0539 64.2208 35.0542H54.1667L46.55 42.675C45.7682 43.4568 44.7078 43.8961 43.6021 43.8961C42.4964 43.8961 41.436 43.4568 40.6542 42.675C39.8723 41.8932 39.4331 40.8328 39.4331 39.7271C39.4331 38.6214 39.8723 37.561 40.6542 36.7792L48.275 29.1667V19.1083C48.2752 18.0034 48.7144 16.9437 49.4958 16.1625L64.225 1.42917C64.8077 0.846114 65.5502 0.448993 66.3587 0.288047C67.1671 0.127102 68.0051 0.209563 68.7667 0.525M63.0042 14.4292L56.6083 20.8333V26.725H62.5L68.9 20.3292H67.1708C66.0658 20.3292 65.006 19.8902 64.2246 19.1088C63.4431 18.3274 63.0042 17.2676 63.0042 16.1625V14.4292Z" fill="white"/>
</svg>
