<svg width="118" height="113" viewBox="0 0 118 113" fill="none" xmlns="http://www.w3.org/2000/svg">
<path d="M47.3081 16.8149C49.8431 12.27 51.1081 10 53.003 10C54.898 10 56.163 12.27 58.698 16.8149L59.348 17.9899C60.073 19.2849 60.433 19.9299 60.993 20.3549C61.553 20.7799 62.253 20.9399 63.653 21.2549L64.923 21.5449C69.8429 22.6549 72.3029 23.2149 72.8879 25.0949C73.4729 26.9749 71.7979 28.9399 68.4429 32.8598L67.5729 33.8748C66.6229 34.9898 66.148 35.5448 65.933 36.2348C65.718 36.9248 65.788 37.6698 65.933 39.1548L66.063 40.5048C66.5729 45.7397 66.8229 48.3547 65.293 49.5197C63.763 50.6847 61.458 49.6197 56.853 47.4997L55.658 46.9497C54.353 46.3497 53.698 46.0497 53.003 46.0497C52.3081 46.0497 51.6531 46.3497 50.3481 46.9497L49.1531 47.4997C44.5531 49.6247 42.2431 50.6847 40.7131 49.5197C39.1831 48.3547 39.4331 45.7397 39.9431 40.5098L40.0731 39.1548C40.2181 37.6698 40.2881 36.9248 40.0731 36.2348C39.8581 35.5448 39.3831 34.9848 38.4332 33.8748L37.5632 32.8598C34.2132 28.9399 32.5332 26.9749 33.1182 25.0949C33.7032 23.2149 36.1632 22.6549 41.0831 21.5449L42.3531 21.2549C43.7531 20.9399 44.4531 20.7799 45.0131 20.3549C45.5731 19.9299 45.9331 19.2849 46.6531 17.9899L47.3081 16.8149ZM90.1528 38.4098C91.4228 36.1348 92.0528 34.9998 93.0028 34.9998C93.9527 34.9998 94.5827 36.1348 95.8527 38.4098L96.1777 38.9948C96.5377 39.6448 96.7177 39.9648 96.9977 40.1798C97.2777 40.3948 97.6277 40.4698 98.3277 40.6298L98.9627 40.7698C101.423 41.3298 102.653 41.6048 102.943 42.5498C103.233 43.4948 102.398 44.4697 100.723 46.4297L100.288 46.9347C99.8127 47.4947 99.5727 47.7747 99.4677 48.1197C99.3627 48.4647 99.3977 48.8347 99.4677 49.5797L99.5327 50.2547C99.7827 52.8697 99.9127 54.1797 99.1477 54.7597C98.3827 55.3397 97.2327 54.8097 94.9277 53.7497L94.3277 53.4747C93.6777 53.1747 93.3477 53.0247 93.0028 53.0247C92.6528 53.0247 92.3278 53.1747 91.6728 53.4747L91.0778 53.7497C88.7778 54.8097 87.6278 55.3397 86.8578 54.7597C86.0928 54.1797 86.2178 52.8697 86.4728 50.2547L86.5378 49.5797C86.6078 48.8297 86.6478 48.4597 86.5378 48.1197C86.4328 47.7697 86.1928 47.4947 85.7178 46.9347L85.2828 46.4297C83.6078 44.4697 82.7678 43.4898 83.0628 42.5498C83.3578 41.6098 84.5828 41.3298 87.0428 40.7698L87.6778 40.6298C88.3778 40.4698 88.7278 40.3898 89.0078 40.1798C89.2878 39.9648 89.4678 39.6398 89.8278 38.9948L90.1528 38.4098ZM10.1534 38.4098C11.4284 36.1348 12.0533 34.9998 13.0033 34.9998C13.9533 34.9998 14.5833 36.1348 15.8533 38.4098L16.1783 38.9948C16.5383 39.6448 16.7183 39.9648 16.9983 40.1798C17.2783 40.3948 17.6283 40.4698 18.3283 40.6298L18.9633 40.7698C21.4233 41.3298 22.6533 41.6048 22.9483 42.5498C23.2383 43.4898 22.3983 44.4697 20.7233 46.4297L20.2883 46.9347C19.8133 47.4947 19.5733 47.7747 19.4683 48.1197C19.3633 48.4647 19.3983 48.8347 19.4683 49.5797L19.5333 50.2547C19.7833 52.8697 19.9133 54.1797 19.1483 54.7597C18.3833 55.3397 17.2283 54.8097 14.9283 53.7497L14.3283 53.4747C13.6783 53.1747 13.3483 53.0247 13.0033 53.0247C12.6533 53.0247 12.3283 53.1747 11.6733 53.4747L11.0784 53.7497C8.77837 54.8097 7.62838 55.3397 6.85838 54.7597C6.09339 54.1797 6.21839 52.8697 6.47339 50.2547L6.53839 49.5797C6.60839 48.8297 6.64838 48.4597 6.53839 48.1197C6.43339 47.7697 6.19339 47.4947 5.71839 46.9347L5.2834 46.4297C3.60841 44.4697 2.76841 43.4898 3.05841 42.5498C3.35341 41.6048 4.5834 41.3298 7.04338 40.7698L7.67838 40.6298C8.37837 40.4698 8.72837 40.3898 9.00837 40.1798C9.28837 39.9648 9.46836 39.6398 9.82836 38.9948L10.1534 38.4098Z" stroke="white" stroke-width="6"/>
<path d="M18.0034 101.939H29.3033C34.3533 101.939 39.4683 102.469 44.3832 103.479C53.1588 105.276 62.1865 105.476 71.033 104.069C75.373 103.369 79.633 102.294 83.4929 100.434C86.9729 98.7491 91.2379 96.3841 94.1029 93.7292C96.9628 91.0792 99.9428 86.7442 102.053 83.3542C103.873 80.4443 102.993 76.8793 100.123 74.7143C98.5092 73.5434 96.5666 72.9128 94.5729 72.9128C92.5792 72.9128 90.6365 73.5434 89.0229 74.7143L79.988 81.5392C76.488 84.1892 72.663 86.6242 68.1081 87.3492C67.5581 87.4359 66.9831 87.5142 66.3831 87.5842M66.3831 87.5842L65.8331 87.6442M66.3831 87.5842C67.1832 87.3674 67.9169 86.955 68.5181 86.3842C69.2727 85.7332 69.889 84.9374 70.3306 84.0439C70.7721 83.1504 71.0299 82.1773 71.0886 81.1824C71.1474 80.1875 71.0059 79.1909 70.6726 78.2517C70.3392 77.3124 69.8208 76.4496 69.148 75.7143C68.4965 74.991 67.7376 74.3721 66.8981 73.8793C52.9132 65.5344 31.1483 71.8893 18.0034 81.2142M66.3831 87.5842C66.2025 87.6245 66.0181 87.6446 65.8331 87.6442M65.8331 87.6442C62.8176 87.9464 59.7799 87.9531 56.7631 87.6642" stroke="white" stroke-width="6" stroke-linecap="round"/>
<path d="M18.0033 77.4995C18.0033 73.3574 14.6455 69.9995 10.5034 69.9995C6.36126 69.9995 3.00342 73.3574 3.00342 77.4995V102.499C3.00342 106.641 6.36126 109.999 10.5034 109.999C14.6455 109.999 18.0033 106.641 18.0033 102.499V77.4995Z" stroke="white" stroke-width="6"/>
</svg>
