<svg width="103" height="94" viewBox="0 0 103 94" fill="none" xmlns="http://www.w3.org/2000/svg">
<path d="M78.5126 83.6618L68.3042 89.0354C68.0013 89.1938 67.6605 89.2645 67.3199 89.2396C66.9793 89.2147 66.6522 89.0952 66.3753 88.8943C66.0984 88.6935 65.8825 88.4193 65.7517 88.1024C65.6209 87.7854 65.5804 87.4382 65.6347 87.0994L67.5851 75.7147L59.3273 67.6543C59.0808 67.4149 58.9063 67.1107 58.8236 66.7764C58.741 66.4421 58.7536 66.0913 58.8599 65.7638C58.9663 65.4364 59.1621 65.1456 59.4251 64.9246C59.6881 64.7036 60.0076 64.5614 60.3472 64.5142L71.7587 62.852L76.8629 52.4967C77.0155 52.1883 77.2508 51.9288 77.5423 51.7474C77.8337 51.566 78.1697 51.4698 78.5126 51.4698C78.8554 51.4698 79.1915 51.566 79.4829 51.7474C79.7744 51.9288 80.0096 52.1883 80.1623 52.4967L85.2665 62.852L96.678 64.5142C97.0166 64.5631 97.3348 64.7062 97.5966 64.9274C97.8585 65.1486 98.0535 65.439 98.1596 65.7657C98.2657 66.0924 98.2787 66.4424 98.1971 66.7762C98.1155 67.11 97.9426 67.4141 97.6979 67.6543L89.44 75.7147L91.3858 87.0947C91.4442 87.434 91.4067 87.7831 91.2776 88.1021C91.1485 88.4211 90.9329 88.6974 90.6554 88.8995C90.3779 89.1016 90.0495 89.2215 89.7075 89.2455C89.3656 89.2695 89.0238 89.1968 88.7209 89.0354L78.5126 83.6618ZM23.9929 83.6618L13.7845 89.0354C13.4816 89.1938 13.1408 89.2645 12.8001 89.2396C12.4595 89.2147 12.1325 89.0952 11.8556 88.8943C11.5787 88.6935 11.3628 88.4193 11.232 88.1024C11.1012 87.7854 11.0607 87.4382 11.1149 87.0994L13.0654 75.7147L4.80755 67.6543C4.56107 67.4149 4.38655 67.1107 4.30391 66.7764C4.22127 66.4421 4.23385 66.0913 4.3402 65.7638C4.44655 65.4364 4.64239 65.1456 4.90537 64.9246C5.16835 64.7036 5.48786 64.5614 5.82745 64.5142L17.239 62.852L22.3432 52.4967C22.4958 52.1883 22.7311 51.9288 23.0225 51.7474C23.314 51.566 23.65 51.4698 23.9929 51.4698C24.3357 51.4698 24.6717 51.566 24.9632 51.7474C25.2546 51.9288 25.4899 52.1883 25.6425 52.4967L30.7467 62.852L42.1583 64.5142C42.4969 64.5631 42.8151 64.7062 43.0769 64.9274C43.3387 65.1486 43.5337 65.439 43.6398 65.7657C43.7459 66.0924 43.7589 66.4424 43.6774 66.7762C43.5958 67.11 43.4229 67.4141 43.1782 67.6543L34.9203 75.7147L36.8661 87.0947C36.9245 87.434 36.887 87.7831 36.7579 88.1021C36.6288 88.4211 36.4132 88.6974 36.1357 88.8995C35.8581 89.1016 35.5297 89.2215 35.1878 89.2455C34.8459 89.2695 34.504 89.1968 34.2012 89.0354L23.9929 83.6618ZM51.2527 36.442L41.0444 41.8156C40.7414 41.974 40.4006 42.0447 40.06 42.0198C39.7194 41.9949 39.3924 41.8753 39.1155 41.6745C38.8385 41.4737 38.6226 41.1995 38.4919 40.8825C38.3611 40.5656 38.3205 40.2183 38.3748 39.8796L40.3253 28.4949L32.0674 20.4344C31.8209 20.195 31.6464 19.8908 31.5638 19.5566C31.4811 19.2223 31.4937 18.8714 31.6001 18.544C31.7064 18.2165 31.9023 17.9257 32.1652 17.7048C32.4282 17.4838 32.7477 17.3416 33.0873 17.2943L44.4989 15.6322L49.603 5.27686C49.7557 4.96844 49.991 4.70893 50.2824 4.52752C50.5738 4.34611 50.9099 4.25 51.2527 4.25C51.5956 4.25 51.9316 4.34611 52.223 4.52752C52.5145 4.70893 52.7498 4.96844 52.9024 5.27686L58.0066 15.6322L69.4181 17.2943C69.7567 17.3432 70.0749 17.4864 70.3368 17.7076C70.5986 17.9287 70.7936 18.2191 70.8997 18.5458C71.0058 18.8726 71.0188 19.2226 70.9372 19.5563C70.8556 19.8901 70.6827 20.1943 70.438 20.4344L62.1802 28.4949L64.126 39.8748C64.1844 40.2142 64.1469 40.5632 64.0178 40.8822C63.8886 41.2013 63.6731 41.4775 63.3955 41.6796C63.118 41.8818 62.7896 42.0016 62.4477 42.0257C62.1057 42.0497 61.7639 41.9769 61.4611 41.8156L51.2527 36.442Z" stroke="white" stroke-width="8.5" stroke-linecap="round" stroke-linejoin="round"/>
</svg>
