<svg width="16" height="20" viewBox="0 0 16 20" fill="none" xmlns="http://www.w3.org/2000/svg">
<path fill-rule="evenodd" clip-rule="evenodd" d="M5 19.0003C5 18.7351 5.10536 18.4807 5.29289 18.2932C5.48043 18.1056 5.73478 18.0003 6 18.0003H10C10.2652 18.0003 10.5196 18.1056 10.7071 18.2932C10.8946 18.4807 11 18.7351 11 19.0003C11 19.2655 10.8946 19.5199 10.7071 19.7074C10.5196 19.8949 10.2652 20.0003 10 20.0003H6C5.73478 20.0003 5.48043 19.8949 5.29289 19.7074C5.10536 19.5199 5 19.2655 5 19.0003ZM5 13.4253C5.26522 13.4253 5.51957 13.5307 5.70711 13.7182C5.89464 13.9057 6 14.1601 6 14.4253V14.8233C6 15.1973 6.303 15.5003 6.677 15.5003H9.323C9.50255 15.5003 9.67475 15.429 9.80171 15.302C9.92867 15.175 10 15.0028 10 14.8233V14.5003C10 14.2351 10.1054 13.9807 10.2929 13.7932C10.4804 13.6056 10.7348 13.5003 11 13.5003C11.2652 13.5003 11.5196 13.6056 11.7071 13.7932C11.8946 13.9807 12 14.2351 12 14.5003V14.8233C12.0001 15.1749 11.931 15.523 11.7965 15.8479C11.662 16.1727 11.4648 16.4679 11.2162 16.7165C10.9676 16.9651 10.6724 17.1623 10.3476 17.2968C10.0228 17.4313 9.67459 17.5004 9.323 17.5003H6.677C6.32541 17.5004 5.97725 17.4313 5.6524 17.2968C5.32755 17.1623 5.03239 16.9651 4.78378 16.7165C4.53517 16.4679 4.33799 16.1727 4.20351 15.8479C4.06902 15.523 3.99987 15.1749 4 14.8233V14.4253C4 14.1601 4.10536 13.9057 4.29289 13.7182C4.48043 13.5307 4.73478 13.4253 5 13.4253Z" fill="white"/>
<path d="M10.2277 14.8462C10.3647 15.2662 10.8177 15.5002 11.2227 15.3222C12.9063 14.5812 14.2831 13.2826 15.1213 11.6452C15.9594 10.0078 16.2077 8.13156 15.8243 6.3325C15.4409 4.53344 14.4492 2.92147 13.0163 1.76806C11.5834 0.614659 9.79673 -0.0097085 7.95729 0.000114152C6.11786 0.0099368 4.338 0.65335 2.91747 1.82199C1.49695 2.99063 0.522541 4.61311 0.158364 6.41616C-0.205813 8.21921 0.0624866 10.0927 0.918078 11.7211C1.77367 13.3494 3.16428 14.6332 4.8557 15.3562C5.2617 15.5302 5.7127 15.2922 5.8457 14.8702L5.9327 14.5922C6.0647 14.1712 5.8267 13.7262 5.4267 13.5402C4.16743 12.9553 3.14495 11.9589 2.52774 10.7152C1.91054 9.47145 1.73542 8.05456 2.03125 6.69798C2.32708 5.3414 3.07621 4.12606 4.1552 3.25221C5.2342 2.37836 6.57868 1.89814 7.96712 1.89067C9.35557 1.88321 10.7051 2.34894 11.7935 3.21113C12.8818 4.07332 13.644 5.28053 13.9544 6.63385C14.2648 7.98717 14.1049 9.40587 13.5011 10.6562C12.8973 11.9065 11.8856 12.9138 10.6327 13.5122C10.2337 13.7022 10.0007 14.1492 10.1377 14.5702L10.2277 14.8462Z" fill="white"/>
<path fill-rule="evenodd" clip-rule="evenodd" d="M6.05602 7.07627C6.09936 6.9523 6.16669 6.83808 6.25416 6.74014C6.34164 6.64219 6.44755 6.56243 6.56586 6.50541C6.68416 6.4484 6.81253 6.41524 6.94365 6.40784C7.07477 6.40044 7.20606 6.41893 7.33002 6.46227L8.23602 6.77927L8.28002 6.79427C8.50002 6.87027 8.75802 6.96027 8.96202 7.06727C9.19602 7.19027 9.58002 7.44727 9.70902 7.96227C9.83702 8.47727 9.61902 8.88427 9.47102 9.10227C9.34102 9.29227 9.15502 9.49327 8.99802 9.66427L8.96602 9.69827L8.86302 9.81027L9.30802 9.95527C9.5536 10.0422 9.75555 10.2216 9.87089 10.4552C9.98623 10.6888 10.0059 10.9582 9.92558 11.206C9.84531 11.4539 9.67149 11.6606 9.4411 11.7822C9.21071 11.9039 8.94196 11.9308 8.69202 11.8573L7.94902 11.6173L7.90402 11.6023C7.66448 11.5325 7.43049 11.4449 7.20402 11.3403C6.96602 11.2223 6.56902 10.9703 6.43202 10.4473C6.29502 9.92527 6.51802 9.51127 6.66702 9.29127C6.79902 9.09827 6.98702 8.89427 7.14902 8.71927L7.18102 8.68427L7.29002 8.56627L6.67002 8.35027C6.54605 8.30694 6.43183 8.23961 6.33389 8.15213C6.23594 8.06466 6.15618 7.95874 6.09916 7.84044C6.04215 7.72214 6.00899 7.59376 6.00159 7.46265C5.99419 7.33153 6.01268 7.20024 6.05602 7.07627Z" fill="white"/>
</svg>
