<svg width="56" height="56" viewBox="0 0 56 56" fill="none" xmlns="http://www.w3.org/2000/svg">
<g filter="url(#filter0_d_47_23)">
<mask id="mask0_47_23" style="mask-type:luminance" maskUnits="userSpaceOnUse" x="4" y="0" width="48" height="48">
<path d="M4 0H52V48H4V0Z" fill="white"/>
</mask>
<g mask="url(#mask0_47_23)">
<path fill-rule="evenodd" clip-rule="evenodd" d="M38.83 28.7641C38.234 28.4661 35.312 27.0301 34.768 26.8301C34.224 26.6301 33.828 26.5341 33.43 27.1301C33.034 27.7241 31.896 29.0621 31.55 29.4581C31.202 29.8561 30.856 29.9041 30.262 29.6081C29.668 29.3081 27.752 28.6821 25.482 26.6581C23.716 25.0821 22.522 23.1361 22.176 22.5401C21.83 21.9461 22.138 21.6241 22.436 21.3281C22.704 21.0621 23.03 20.6341 23.328 20.2881C23.626 19.9421 23.724 19.6921 23.922 19.2941C24.122 18.8981 24.022 18.5521 23.872 18.2541C23.724 17.9561 22.536 15.0301 22.04 13.8401C21.558 12.6821 21.068 12.8401 20.704 12.8201C20.356 12.8041 19.96 12.8001 19.564 12.8001C19.168 12.8001 18.524 12.9481 17.98 13.5441C17.434 14.1381 15.9 15.5761 15.9 18.5021C15.9 21.4261 18.028 24.2521 18.326 24.6501C18.624 25.0481 22.516 31.0501 28.478 33.6241C29.898 34.2361 31.004 34.6021 31.866 34.8741C33.29 35.3281 34.586 35.2641 35.61 35.1101C36.75 34.9401 39.126 33.6721 39.622 32.2841C40.118 30.8961 40.116 29.7061 39.968 29.4581C39.82 29.2101 39.424 29.0621 38.828 28.7641M27.984 43.5701H27.976C24.4349 43.5707 20.9587 42.6188 17.912 40.8141L17.192 40.3861L9.708 42.3501L11.706 35.0541L11.236 34.3061C9.25618 31.1548 8.20848 27.5076 8.214 23.7861C8.218 12.8861 17.086 4.01807 27.992 4.01807C30.5896 4.01017 33.1628 4.51868 35.5621 5.51404C37.9613 6.5094 40.1389 7.97174 41.968 9.81607C43.809 11.6487 45.2681 13.8282 46.2609 16.2286C47.2538 18.629 47.7606 21.2025 47.752 23.8001C47.748 34.7001 38.88 43.5701 27.984 43.5701ZM44.808 6.97607C42.6043 4.7586 39.9826 3.00026 37.0948 1.80283C34.2069 0.605392 31.1103 -0.0073506 27.984 6.65396e-05C14.876 6.65396e-05 4.204 10.6701 4.2 23.7841C4.19355 27.9576 5.2884 32.059 7.374 35.6741L4 48.0001L16.608 44.6921C20.0963 46.5908 24.0044 47.5864 27.976 47.5881H27.986C41.094 47.5881 51.766 36.9181 51.77 23.8021C51.7798 20.6766 51.1697 17.5802 49.975 14.6921C48.7803 11.8039 47.0248 9.18134 44.81 6.97607" fill="#77B3C9"/>
</g>
</g>
<defs>
<filter id="filter0_d_47_23" x="0" y="0" width="56" height="56" filterUnits="userSpaceOnUse" color-interpolation-filters="sRGB">
<feFlood flood-opacity="0" result="BackgroundImageFix"/>
<feColorMatrix in="SourceAlpha" type="matrix" values="0 0 0 0 0 0 0 0 0 0 0 0 0 0 0 0 0 0 127 0" result="hardAlpha"/>
<feOffset dy="4"/>
<feGaussianBlur stdDeviation="2"/>
<feComposite in2="hardAlpha" operator="out"/>
<feColorMatrix type="matrix" values="0 0 0 0 0 0 0 0 0 0 0 0 0 0 0 0 0 0 0.25 0"/>
<feBlend mode="normal" in2="BackgroundImageFix" result="effect1_dropShadow_47_23"/>
<feBlend mode="normal" in="SourceGraphic" in2="effect1_dropShadow_47_23" result="shape"/>
</filter>
</defs>
</svg>
